#!OML:ASF H:\ManfredETheater\Project 1\Capture day 1\Session 1\subject.ASF
:FULLY-SPECIFIED
:DEGREES
293
root -2.66262 16.388 -42.0441 192.312 -1.76258 -175.443
lowerback 21.3383 -0.0956542 4.89882
upperback 1.327 0.912726 3.88766
thorax -10.5003 0.0662525 1.27593
lowerneck -12.0336 -3.91189 -2.7399
upperneck 2.85593 -4.86749 2.27688
head 3.18812 -2.32145 0.915175
rclavicle -6.75868e-015 8.74653e-015
rhumerus -37.3355 -0.466825 -81.5759
rradius 69.6977
rwrist -2.72497
rhand -25.8615 -7.41245
rfingers 7.12502
rthumb 0.679495 -37.3911
lclavicle -6.75868e-015 8.74653e-015
lhumerus -43.7471 -11.2597 90.5796
lradius 78.9932
lwrist -6.28991
lhand -26.6381 -4.28239
lfingers 7.12502
lthumb -0.0705131 25.6973
rfemur -33.724 -4.01496 7.30888
rtibia 51.8444
rfoot -14.5719 -20.1458
rtoes -31.58
lfemur -32.4597 4.48219 -1.35917
ltibia 71.1614
lfoot -23.482 -20.4729
ltoes -13.3934
294
root -2.68538 16.3456 -42.1853 192.379 -2.08963 -175.679
lowerback 21.1976 -0.17513 4.45644
upperback 1.28378 0.71022 3.73036
thorax -10.4784 0.00207318 1.40974
lowerneck -11.9453 -3.97352 -2.87656
upperneck 2.93348 -4.96708 2.70928
head 3.22121 -2.35703 1.07613
rclavicle 2.38542e-015 -2.62396e-014
rhumerus -38.3523 -1.22433 -81.4479
rradius 69.8274
rwrist -3.57205
rhand -26.4419 -7.81153
rfingers 7.12502
rthumb 0.118939 -37.7912
lclavicle 2.38542e-015 -2.62396e-014
lhumerus -43.3342 -11.6988 90.586
lradius 80.0585
lwrist -6.13259
lhand -26.8233 -4.43279
lfingers 7.12502
lthumb -0.249468 25.5468
rfemur -34.0911 -3.78222 7.21626
rtibia 53.6079
rfoot -14.0372 -21.6949
rtoes -29.9659
lfemur -31.868 3.74537 -1.63942
ltibia 70.9615
lfoot -24.4421 -19.9285
ltoes -14.5401
295
root -2.7056 16.2999 -42.3257 192.437 -2.43115 -175.969
lowerback 21.1044 -0.258228 3.96359
upperback 1.26786 0.488863 3.56314
thorax -10.4501 -0.0703457 1.56713
lowerneck -11.899 -4.03956 -3.02634
upperneck 2.95358 -5.06557 3.14836
head 3.24416 -2.39009 1.24203
rclavicle 1.33186e-014 2.22639e-014
rhumerus -39.3323 -2.0289 -81.2754
rradius 69.852
rwrist -4.45673
rhand -27.0492 -8.23773
rfingers 7.12502
rthumb -0.467633 -38.217
lclavicle 1.33186e-014 2.22639e-014
lhumerus -42.7868 -12.1197 90.5639
lradius 81.1544
lwrist -5.89901
lhand -26.9952 -4.55645
lfingers 7.12502
lthumb -0.415447 25.4229
rfemur -34.6251 -3.77075 7.15116
rtibia 55.6542
rfoot -13.4482 -23.1934
rtoes -28.2289
lfemur -31.286 2.93598 -1.93098
ltibia 70.7555
lfoot -25.3611 -19.5571
ltoes -15.6766
296
root -2.72328 16.2515 -42.4649 192.486 -2.75943 -176.315
lowerback 21.0722 -0.332969 3.41247
upperback 1.28005 0.262374 3.38645
thorax -10.4215 -0.144657 1.74957
lowerneck -11.9 -4.11088 -3.1931
upperneck 2.91554 -5.16251 3.58873
head 3.25766 -2.42069 1.41176
rclavicle -8.15017e-015 -2.70347e-014
rhumerus -40.2803 -2.86817 -81.0538
rradius 69.7818
rwrist -5.35771
rhand -27.6338 -8.68212
rfingers 7.12502
rthumb -1.03221 -38.6594
lclavicle -8.15017e-015 -2.70347e-014
lhumerus -42.1086 -12.5194 90.5221
lradius 82.2812
lwrist -5.60733
lhand -27.2128 -4.68034
lfingers 7.12502
lthumb -0.625617 25.2985
rfemur -35.3358 -3.97058 7.10923
rtibia 57.9579
rfoot -12.8246 -24.5871
rtoes -26.2173
lfemur -30.706 2.09861 -2.25966
ltibia 70.5415
lfoot -26.2537 -19.2754
ltoes -16.7042
297
root -2.73894 16.2009 -42.6033 192.528 -3.06336 -176.696
lowerback 21.096 -0.396901 2.83182
upperback 1.32352 0.0386979 3.20625
thorax -10.3858 -0.219089 1.94524
lowerneck -11.9408 -4.18562 -3.37665
upperneck 2.8096 -5.25383 4.0186
head 3.25627 -2.44738 1.58177
rclavicle 1.98785e-015 -2.46493e-014
rhumerus -41.1992 -3.72719 -80.7806
rradius 69.6321
rwrist -6.25494
rhand -28.1417 -9.17205
rfingers 7.12502
rthumb -1.52276 -39.1464
lclavicle 1.98785e-015 -2.46493e-014
lhumerus -41.2953 -12.8916 90.4692
lradius 83.4266
lwrist -5.27802
lhand -27.4851 -4.79726
lfingers 7.12502
lthumb -0.888642 25.1806
rfemur -36.2192 -4.37656 7.11077
rtibia 60.4749
rfoot -12.2017 -25.8059
rtoes -23.7106
lfemur -30.1152 1.26646 -2.61989
ltibia 70.3203
lfoot -27.1047 -19.0732
ltoes -17.4898
298
root -2.75378 16.1491 -42.742 192.559 -3.30964 -177.096
lowerback 21.177 -0.441085 2.24632
upperback 1.39452 -0.165541 3.01919
thorax -10.348 -0.287326 2.13183
lowerneck -12.0009 -4.26166 -3.57141
upperneck 2.63386 -5.33718 4.43082
head 3.2347 -2.46964 1.74903
rclavicle 5.96354e-016 -4.33351e-014
rhumerus -42.112 -4.58817 -80.4662
rradius 69.4103
rwrist -7.13998
rhand -28.5647 -9.68914
rfingers 7.12502
rthumb -1.93134 -39.6601
lclavicle 5.96354e-016 -4.33351e-014
lhumerus -40.3663 -13.2402 90.4095
lradius 84.585
lwrist -4.94905
lhand -27.8353 -4.90774
lfingers 7.12502
lthumb -1.22682 25.0685
rfemur -37.26 -4.95993 7.16582
rtibia 63.1452
rfoot -11.6164 -26.751
rtoes -20.7719
lfemur -29.4772 0.487252 -3.0217
ltibia 70.0877
lfoot -27.9354 -18.8684
ltoes -18.1334
299
root -2.76822 16.0969 -42.8806 192.591 -3.4741 -177.482
lowerback 21.3034 -0.459403 1.6878
upperback 1.48809 -0.33527 2.8349
thorax -10.308 -0.343796 2.29744
lowerneck -12.0717 -4.33835 -3.78318
upperneck 2.39205 -5.41051 4.82033
head 3.19239 -2.48697 1.91301
rclavicle 1.17283e-014 -1.66979e-014
rhumerus -43.0236 -5.42795 -80.1131
rradius 69.1313
rwrist -8.01897
rhand -28.8548 -10.2584
rfingers 7.12502
rthumb -2.21151 -40.2267
lclavicle 1.17283e-014 -1.66979e-014
lhumerus -39.3301 -13.5619 90.3504
lradius 85.7525
lwrist -4.64618
lhand -28.2308 -4.98715
lfingers 7.12502
lthumb -1.6088 24.9865
rfemur -38.4711 -5.67847 7.31117
rtibia 65.9062
rfoot -11.1161 -27.3339
rtoes -17.6421
lfemur -28.7914 -0.190632 -3.4397
ltibia 69.8439
lfoot -28.7491 -18.6094
ltoes -18.6272
300
root -2.78374 16.0457 -43.0213 192.627 -3.54628 -177.848
lowerback 21.4457 -0.453049 1.17793
upperback 1.60274 -0.467872 2.65031
thorax -10.2525 -0.388158 2.42466
lowerneck -12.1442 -4.40856 -3.988
upperneck 2.09628 -5.46685 5.15808
head 3.12919 -2.49708 2.06
rclavicle -2.0276e-014 3.26007e-014
rhumerus -43.9436 -6.22465 -79.7286
rradius 68.8027
rwrist -8.87827
rhand -29.0171 -10.8719
rfingers 7.12502
rthumb -2.36827 -40.8385
lclavicle -2.0276e-014 3.26007e-014
lhumerus -38.2027 -13.8554 90.2998
lradius 86.9103
lwrist -4.38845
lhand -28.6698 -5.03387
lfingers 7.12502
lthumb -2.03285 24.9362
rfemur -39.8237 -6.51672 7.54814
rtibia 68.6866
rfoot -10.7443 -27.4843
rtoes -14.8132
lfemur -28.0325 -0.751976 -3.88886
ltibia 69.571
lfoot -29.5915 -18.2516
ltoes -19.1585
301
root -2.80022 15.9957 -43.1632 192.695 -3.54468 -178.178
lowerback 21.6008 -0.434144 0.738698
upperback 1.71367 -0.569902 2.47358
thorax -10.2082 -0.422919 2.51218
lowerneck -12.2055 -4.46453 -4.17427
upperneck 1.76459 -5.49888 5.43285
head 3.0473 -2.49713 2.18449
rclavicle 7.35503e-015 8.74653e-015
rhumerus -44.8897 -6.9432 -79.3265
rradius 68.4334
rwrist -9.73309
rhand -29.0875 -11.4619
rfingers 7.12502
rthumb -2.43623 -41.4277
lclavicle 7.35503e-015 8.74653e-015
lhumerus -37.0145 -14.1059 90.2633
lradius 88.046
lwrist -4.19132
lhand -29.1228 -5.07477
lfingers 7.12502
lthumb -2.47033 24.8907
rfemur -41.3335 -7.46789 7.91259
rtibia 71.4293
rfoot -10.527 -27.1641
rtoes -12.8022
lfemur -27.2398 -1.19072 -4.3431
ltibia 69.2576
lfoot -30.4414 -17.7974
ltoes -19.3187
302
root -2.81771 15.9483 -43.3079 192.805 -3.46882 -178.449
lowerback 21.7393 -0.40473 0.389834
upperback 1.81785 -0.637996 2.31202
thorax -10.1635 -0.446667 2.55481
lowerneck -12.2585 -4.50451 -4.34017
upperneck 1.41439 -5.50615 5.64778
head 2.95312 -2.48677 2.287
rclavicle -1.27222e-014 -7.95139e-015
rhumerus -45.867 -7.56532 -78.9164
rradius 68.0434
rwrist -10.5625
rhand -29.094 -11.9868
rfingers 7.12502
rthumb -2.44252 -41.9525
lclavicle -1.27222e-014 -7.95139e-015
lhumerus -35.7839 -14.3009 90.2472
lradius 89.1489
lwrist -4.09667
lhand -29.5514 -5.11632
lfingers 7.12502
lthumb -2.88421 24.8439
rfemur -42.9923 -8.49891 8.44049
rtibia 74.0773
rfoot -10.4967 -26.3752
rtoes -12.0506
lfemur -26.4089 -1.50263 -4.77581
ltibia 68.8835
lfoot -31.3042 -17.2441
ltoes -19.4556
303
root -2.83607 15.9039 -43.4564 192.963 -3.33127 -178.69
lowerback 21.8509 -0.373037 0.104399
upperback 1.9084 -0.687379 2.1623
thorax -10.1202 -0.464379 2.56842
lowerneck -12.3157 -4.52655 -4.48713
upperneck 1.07346 -5.48828 5.81134
head 2.85884 -2.46543 2.37043
rclavicle 5.96354e-015 -1.80894e-014
rhumerus -46.8793 -8.06064 -78.5127
rradius 67.6591
rwrist -11.3441
rhand -29.0851 -12.4061
rfingers 7.12502
rthumb -2.43391 -42.372
lclavicle 5.96354e-015 -1.80894e-014
lhumerus -34.5315 -14.4159 90.2565
lradius 90.2083
lwrist -4.1196
lhand -29.9039 -5.15058
lfingers 7.12502
lthumb -3.22465 24.8048
rfemur -44.7882 -9.60727 9.11264
rtibia 76.587
rfoot -10.6749 -25.1661
rtoes -12.7439
lfemur -25.5441 -1.71842 -5.21258
ltibia 68.4303
lfoot -32.1568 -16.6205
ltoes -19.5346
304
root -2.85427 15.8637 -43.6092 193.176 -3.16216 -178.894
lowerback 21.935 -0.347544 -0.111066
upperback 1.97796 -0.725164 2.0318
thorax -10.0861 -0.478743 2.55957
lowerneck -12.385 -4.52915 -4.60374
upperneck 0.757462 -5.44612 5.92034
head 2.77054 -2.43354 2.43132
rclavicle 2.48481e-015 -1.51076e-014
rhumerus -47.9352 -8.42254 -78.1248
rradius 67.3183
rwrist -12.0512
rhand -29.0936 -12.6971
rfingers 7.12502
rthumb -2.44208 -42.6628
lclavicle 2.48481e-015 -1.51076e-014
lhumerus -33.2864 -14.4366 90.2993
lradius 91.2275
lwrist -4.29891
lhand -30.1268 -5.1825
lfingers 7.12502
lthumb -3.43991 24.7695
rfemur -46.7132 -10.7677 9.95793
rtibia 78.9175
rfoot -11.0695 -23.6537
rtoes -14.7125
lfemur -24.6663 -1.86691 -5.62818
ltibia 67.883
lfoot -32.9732 -15.9589
ltoes -19.5874
